<svg width="784" height="618" viewBox="0 0 784 618" fill="none" xmlns="http://www.w3.org/2000/svg">
<path d="M784 12.8608H313.831V235.458H784V12.8608Z" fill="#E6E6E6"/>
<path d="M770.556 31.9489H327.276V217.669H770.556V31.9489Z" fill="white"/>
<path d="M314.13 0.5H783.3V19.4289H314.13V0.5Z" fill="#FFF734" stroke="#FFAE00"/>
<path d="M328.474 15.4124C330.518 15.4124 332.176 13.7587 332.176 11.7187C332.176 9.67865 330.518 8.0249 328.474 8.0249C326.429 8.0249 324.772 9.67865 324.772 11.7187C324.772 13.7587 326.429 15.4124 328.474 15.4124Z" fill="white"/>
<path d="M342.526 15.4124C344.57 15.4124 346.228 13.7587 346.228 11.7187C346.228 9.67865 344.57 8.0249 342.526 8.0249C340.481 8.0249 338.824 9.67865 338.824 11.7187C338.824 13.7587 340.481 15.4124 342.526 15.4124Z" fill="white"/>
<path d="M356.579 15.4124C358.623 15.4124 360.281 13.7587 360.281 11.7187C360.281 9.67865 358.623 8.0249 356.579 8.0249C354.534 8.0249 352.876 9.67865 352.876 11.7187C352.876 13.7587 354.534 15.4124 356.579 15.4124Z" fill="white"/>
<path d="M666.198 62.0013H592.499V187.619H666.198V62.0013Z" fill="#F2F2F2"/>
<path d="M432.134 62.4991H579.788V96.0768H432.134V62.4991Z" fill="#FFF734" stroke="#FD7E14"/>
<path d="M580.288 106.206H431.634V143.41H580.288V106.206Z" fill="#F2F2F2"/>
<path d="M580.288 153.039H431.634V187.617H580.288V153.039Z" fill="#F2F2F2"/>
<path d="M224.318 371.426C224.332 368.88 223.807 366.359 222.776 364.029C221.746 361.699 220.234 359.613 218.34 357.907C216.445 356.2 214.21 354.913 211.782 354.128C209.354 353.343 206.787 353.08 204.249 353.354C203.446 353.444 202.651 353.591 201.868 353.792L140.553 301.354L144.217 281.649L113.995 271.877L104.884 303.455C103.806 307.245 103.981 311.281 105.384 314.963C106.787 318.646 109.343 321.779 112.672 323.897L188.101 371.496C188.101 372.088 188.132 372.68 188.193 373.269C188.469 375.801 189.277 378.246 190.566 380.445C191.855 382.643 193.594 384.545 195.671 386.026C197.748 387.507 200.115 388.533 202.617 389.037C205.119 389.542 207.7 389.513 210.19 388.953C210.914 388.793 211.627 388.588 212.324 388.338C215.815 387.079 218.836 384.783 220.98 381.76C223.125 378.736 224.289 375.13 224.318 371.426V371.426Z" fill="#9F616A"/>
<path d="M71.8799 432.242H150.936C150.936 434.51 232.412 436.35 232.412 436.35C233.691 437.311 234.857 438.413 235.886 439.636C238.981 443.318 240.673 447.973 240.662 452.779V456.065C240.66 461.511 238.491 466.733 234.631 470.584C230.772 474.435 225.538 476.599 220.079 476.601H71.8799C66.4223 476.597 61.1896 474.432 57.3305 470.581C53.4715 466.731 51.3014 461.51 51.2966 456.065V452.779C51.3042 447.335 53.4752 442.116 57.3337 438.266C61.1921 434.416 66.4232 432.25 71.8799 432.242V432.242Z" fill="#3F3D56"/>
<path d="M157.874 475.786H136.468V613.791H157.874V475.786Z" fill="#3F3D56"/>
<path d="M218.801 615.508C218.801 618.092 186.362 616.508 146.348 616.508C106.333 616.508 73.8947 618.092 73.8947 615.508C73.8947 612.924 106.333 592.434 146.348 592.434C186.362 592.434 218.801 612.924 218.801 615.508Z" fill="#3F3D56"/>
<path d="M199.477 596.866L219.663 596.864L229.267 544.624L199.473 544.626L199.477 596.866Z" fill="#9F616A"/>
<path d="M194.327 616.39L259.421 616.388V615.566C259.421 612.247 258.765 608.959 257.492 605.893C256.219 602.826 254.353 600.039 252 597.692C249.648 595.344 246.855 593.482 243.781 592.212C240.707 590.942 237.413 590.288 234.085 590.288H234.083L194.326 590.289L194.327 616.39Z" fill="#2F2E41"/>
<path d="M229.67 564.471L269.916 474.426C273.276 466.836 273.648 458.263 270.957 450.412C268.265 442.562 262.709 436.011 255.395 432.064L168.1 385.36L128.265 381.979L91.5203 378.647L91.2554 379.094C90.9165 379.665 83.0161 393.281 88.3564 408.21C92.4073 419.534 102.944 428.379 119.674 434.5C158.723 448.785 203.833 460.995 221.415 465.581C222.192 465.779 222.918 466.139 223.546 466.637C224.173 467.136 224.688 467.761 225.056 468.472C225.425 469.174 225.644 469.946 225.7 470.737C225.756 471.529 225.646 472.323 225.379 473.07L187.989 556.883C187.599 557.946 187.458 559.085 187.578 560.21C187.699 561.336 188.076 562.419 188.682 563.377C189.288 564.334 190.107 565.139 191.074 565.731C192.042 566.322 193.132 566.685 194.262 566.789L222.2 568.819C222.437 568.841 222.674 568.852 222.909 568.852C224.339 568.852 225.739 568.438 226.939 567.66C228.139 566.883 229.088 565.775 229.67 564.471V564.471Z" fill="#CBCBCB"/>
<path d="M186.303 596.866L206.489 596.864L216.094 544.624L186.3 544.626L186.303 596.866Z" fill="#9F616A"/>
<path d="M181.154 616.39L246.247 616.388V615.566C246.247 612.247 245.592 608.959 244.319 605.893C243.046 602.826 241.18 600.039 238.827 597.692C236.474 595.344 233.681 593.482 230.608 592.212C227.534 590.942 224.239 590.288 220.912 590.288H220.91L181.153 590.289L181.154 616.39Z" fill="#2F2E41"/>
<path d="M214.85 569.4L255.096 479.355C258.456 471.765 258.828 463.191 256.137 455.341C253.446 447.491 247.889 440.94 240.575 436.993L153.28 390.288L113.445 386.908L84.6648 384.417L84.6688 384.023C84.3299 384.594 76.4294 398.209 81.7698 413.138C85.8207 424.462 88.1241 433.308 104.854 439.429C143.903 453.714 189.013 465.924 206.595 470.509C207.372 470.708 208.098 471.068 208.726 471.566C209.353 472.064 209.868 472.69 210.236 473.401C210.605 474.103 210.824 474.875 210.88 475.666C210.936 476.457 210.827 477.252 210.559 477.999L173.17 561.812C172.779 562.875 172.638 564.014 172.759 565.139C172.879 566.265 173.256 567.348 173.863 568.305C174.469 569.263 175.287 570.068 176.254 570.66C177.222 571.251 178.312 571.613 179.442 571.718L207.38 573.748C207.618 573.77 207.854 573.781 208.089 573.781C209.52 573.781 210.92 573.367 212.12 572.589C213.32 571.812 214.268 570.704 214.85 569.4Z" fill="#CBCBCB"/>
<path d="M139.005 386.06C140.934 384.698 168.645 399.203 173.584 387.703C150.531 330.2 166.417 305.37 152.296 272.395C149.809 266.708 146.062 261.657 141.337 257.622C136.612 253.587 131.032 250.673 125.016 249.099L88.3787 247.254L88.189 247.345C79.9215 251.385 73.1791 257.976 68.9616 266.141C64.744 274.305 63.2758 283.608 64.7746 292.671C64.905 328.557 86.4256 355.928 78.9007 381.957C78.5852 383.046 78.4931 384.186 78.63 385.311C78.7669 386.435 79.13 387.521 79.6975 388.502C80.2477 389.45 80.9868 390.276 81.8692 390.929C82.7516 391.581 83.7586 392.046 84.828 392.296L133.204 385.857C134.334 386.125 135.509 386.15 136.649 385.93C137.79 385.71 138.87 385.249 139.818 384.58L139.005 386.06Z" fill="#FFF734"/>
<path d="M100.606 233.6C122.942 233.6 141.049 215.534 141.049 193.248C141.049 170.963 122.942 152.896 100.606 152.896C78.2693 152.896 60.162 170.963 60.162 193.248C60.162 215.534 78.2693 233.6 100.606 233.6Z" fill="#9F616A"/>
<path d="M87.7234 230.286C89.8723 231.225 94.2727 214.141 92.3016 210.724C89.3701 205.643 89.5434 205.679 87.5974 202.317C85.6513 198.955 85.2159 194.354 87.736 191.396C90.256 188.438 96.0878 188.83 97.2379 192.539C96.498 185.494 103.482 179.831 110.4 178.24C117.317 176.649 124.614 177.637 131.57 176.221C139.643 174.577 148.042 167.826 144.821 158.969C144.268 157.494 143.441 156.137 142.382 154.97C138.661 150.795 133.455 149.013 128.366 147.289C117.778 143.703 106.9 140.073 95.7256 140.469C77.3653 141.119 60.0102 153.782 53.8243 171.042C53.0542 173.196 52.4577 175.407 52.0403 177.656C48.2048 198.232 60.1808 218.528 79.6321 226.364L87.7234 230.286Z" fill="#2F2E41"/>
<path d="M299.817 295.176L304.455 322.652C304.507 322.958 304.473 323.273 304.357 323.561L267.972 414.271C267.828 414.63 267.564 414.929 267.226 415.118C266.888 415.307 266.495 415.375 266.112 415.309C265.73 415.244 265.382 415.05 265.125 414.76C264.869 414.469 264.72 414.1 264.704 413.713L263.163 377.262C263.153 377.019 263.195 376.778 263.286 376.554L296.575 294.82C296.714 294.479 296.961 294.192 297.278 294.004C297.594 293.815 297.964 293.735 298.331 293.775C298.698 293.816 299.041 293.974 299.309 294.227C299.578 294.48 299.756 294.813 299.817 295.176V295.176Z" fill="#3F3D56"/>
<path d="M297.241 297.285L301.648 320.89L269.359 403.665L265.167 377.037L297.241 297.285Z" fill="#E6E6E6"/>
<path d="M155.97 413.849C156.764 416.943 261.069 420.292 262.151 419.356C263.121 418.157 263.962 416.859 264.66 415.484C265.753 413.536 266.765 411.582 266.765 411.582L265.051 378.67L162.303 367.714C162.303 367.714 157.757 395.18 156.33 407.798C156.008 409.798 155.887 411.825 155.97 413.849Z" fill="#3F3D56"/>
<path opacity="0.1" d="M251.608 382.152L251.617 410.507L206.172 407.284L208.183 379.071L251.608 382.152Z" fill="black"/>
<path opacity="0.1" d="M192.388 387.064L192.663 387.03L190.517 399.084L165.27 397.293L166.132 385.202L192.388 387.064Z" fill="black"/>
<path opacity="0.1" d="M155.97 413.849C156.764 416.943 261.069 420.292 262.151 419.356C263.121 418.157 263.962 416.859 264.66 415.484L156.33 407.798C156.008 409.798 155.887 411.825 155.97 413.849Z" fill="black"/>
<path d="M114.088 364.7L202.073 381.083C202.293 381.632 202.542 382.171 202.817 382.695C204.013 384.939 205.668 386.907 207.676 388.471C209.683 390.035 211.998 391.16 214.47 391.773C216.952 392.396 219.539 392.483 222.057 392.027C224.575 391.572 226.967 390.586 229.072 389.134C232.885 386.522 235.552 382.554 236.527 378.042C237.502 373.531 236.71 368.819 234.315 364.871C231.919 360.924 228.101 358.04 223.642 356.811C219.184 355.583 214.424 356.102 210.337 358.262C209.625 358.644 208.94 359.074 208.288 359.549L131.866 333.502L127.955 313.844L96.2549 315.937L99.5396 348.89C99.9381 352.736 101.569 356.351 104.189 359.199C106.81 362.047 110.281 363.976 114.088 364.7V364.7Z" fill="#9F616A"/>
<path d="M95.1811 330.635L141.243 315.53L130.498 284.749C129.071 280.662 126.242 277.209 122.511 275.002C118.78 272.794 114.387 271.973 110.108 272.685V272.685C105.779 273.405 101.851 275.645 99.0334 279.001C96.2155 282.358 94.6933 286.609 94.7418 290.987L95.1811 330.635Z" fill="#FFAE00"/>
<path d="M387.379 618H1.01408C0.74513 618 0.487194 617.893 0.297017 617.704C0.10684 617.514 0 617.257 0 616.988C0 616.72 0.10684 616.462 0.297017 616.273C0.487194 616.083 0.74513 615.976 1.01408 615.976H387.379C387.648 615.976 387.906 616.083 388.096 616.273C388.286 616.462 388.393 616.72 388.393 616.988C388.393 617.257 388.286 617.514 388.096 617.704C387.906 617.893 387.648 618 387.379 618Z" fill="#CBCBCB"/>
<path d="M537.673 586.122C556.204 595.691 564.443 616.525 564.443 616.525C564.443 616.525 542.637 621.845 524.106 612.277C505.575 602.708 497.336 581.874 497.336 581.874C497.336 581.874 519.142 576.554 537.673 586.122Z" fill="#F1F1F1"/>
<path d="M531.746 593.015C542.805 610.669 564.284 617.177 564.284 617.177C564.284 617.177 567.835 595.062 556.777 577.408C545.718 559.753 524.239 553.245 524.239 553.245C524.239 553.245 520.688 575.361 531.746 593.015Z" fill="#F1F1F1"/>
<path d="M598.308 617.599H482.702C482.433 617.599 482.175 617.492 481.985 617.302C481.795 617.113 481.688 616.855 481.688 616.587C481.688 616.319 481.795 616.061 481.985 615.872C482.175 615.682 482.433 615.575 482.702 615.575H598.308C598.576 615.575 598.834 615.682 599.025 615.872C599.215 616.061 599.322 616.319 599.322 616.587C599.322 616.855 599.215 617.113 599.025 617.302C598.834 617.492 598.576 617.599 598.308 617.599Z" fill="#CBCBCB"/>
<g clip-path="url(#clip0)">
<path d="M708.627 91.9526V106.808C708.627 106.945 708.571 107.077 708.472 107.174C708.372 107.271 708.238 107.326 708.098 107.326H707.721V184.713C707.721 186.855 706.851 188.908 705.303 190.423C703.756 191.937 701.656 192.788 699.467 192.788H650.042C648.958 192.788 647.885 192.579 646.884 192.173C645.883 191.767 644.973 191.172 644.207 190.422C643.441 189.673 642.833 188.782 642.418 187.803C642.004 186.823 641.791 185.773 641.791 184.713V110.04H641.518C641.419 110.04 641.324 110.002 641.254 109.934C641.184 109.866 641.144 109.773 641.144 109.676V101.221C641.144 101.173 641.153 101.126 641.172 101.081C641.191 101.037 641.218 100.996 641.253 100.962C641.288 100.928 641.329 100.901 641.375 100.883C641.42 100.864 641.469 100.855 641.518 100.855H641.791V97.6704H641.516C641.412 97.67 641.312 97.6293 641.239 97.5572C641.166 97.4851 641.125 97.3875 641.125 97.2859V88.9467C641.125 88.8454 641.167 88.7483 641.24 88.6767C641.313 88.605 641.412 88.5647 641.516 88.5644H641.791V84.2172H641.511C641.466 84.2173 641.42 84.2086 641.378 84.1915C641.336 84.1745 641.298 84.1495 641.266 84.118C641.234 84.0865 641.208 84.0491 641.191 84.0079C641.173 83.9667 641.164 83.9225 641.164 83.878V79.3273C641.164 79.237 641.201 79.1504 641.266 79.0863C641.331 79.0223 641.419 78.9861 641.511 78.9857H641.791V69.7712C641.791 67.6303 642.66 65.5771 644.208 64.0633C645.755 62.5494 647.854 61.6989 650.042 61.6989H699.467C701.656 61.6988 703.755 62.5492 705.303 64.063C706.85 65.5768 707.72 67.6301 707.721 69.7712V91.4346H708.098C708.238 91.435 708.372 91.4897 708.472 91.5867C708.571 91.6838 708.627 91.8153 708.627 91.9526V91.9526Z" fill="#3F3D56"/>
<path d="M677.136 65.8394H669.105C668.78 65.8394 668.517 66.0968 668.517 66.4144V67.0935C668.517 67.411 668.78 67.6684 669.105 67.6684H677.136C677.461 67.6684 677.724 67.411 677.724 67.0935V66.4144C677.724 66.0968 677.461 65.8394 677.136 65.8394Z" fill="#E6E8EC"/>
<path d="M680.176 67.7914C680.762 67.7914 681.236 67.3269 681.236 66.754C681.236 66.181 680.762 65.7166 680.176 65.7166C679.59 65.7166 679.116 66.181 679.116 66.754C679.116 67.3269 679.59 67.7914 680.176 67.7914Z" fill="#E6E8EC"/>
<path d="M703.769 71.3681V185.383C703.769 186.124 703.605 186.857 703.287 187.53C702.97 188.203 702.506 188.8 701.928 189.28C700.981 190.07 699.777 190.504 698.532 190.503H651.22C650.378 190.505 649.548 190.307 648.802 189.927C648.626 189.839 648.456 189.741 648.293 189.633C647.582 189.163 646.999 188.53 646.597 187.789C646.194 187.048 645.983 186.222 645.983 185.383V71.3681C645.983 70.6954 646.119 70.0292 646.382 69.4076C646.645 68.7861 647.031 68.2213 647.517 67.7456C648.003 67.2699 648.581 66.8925 649.216 66.6351C649.851 66.3776 650.532 66.2451 651.22 66.2452H658.301V67.1341C658.301 68.2528 658.755 69.3257 659.564 70.1168C660.373 70.9079 661.469 71.3523 662.613 71.3523H686.675C687.818 71.3523 688.915 70.9079 689.723 70.1168C690.532 69.3257 690.986 68.2528 690.986 67.1341V66.2452H698.532C699.22 66.245 699.901 66.3773 700.536 66.6347C701.172 66.8921 701.749 67.2694 702.235 67.7452C702.722 68.2209 703.107 68.7858 703.371 69.4074C703.634 70.029 703.769 70.6953 703.769 71.3681Z" fill="#FD7E14"/>
<path opacity="0.3" d="M703.769 169.062V185.383C703.769 186.124 703.605 186.857 703.287 187.53C702.97 188.203 702.506 188.8 701.928 189.28C700.981 190.07 699.777 190.504 698.532 190.503H651.22C650.378 190.505 649.548 190.307 648.802 189.927C648.626 189.839 648.456 189.741 648.293 189.633C647.582 189.163 646.999 188.53 646.597 187.789C646.194 187.048 645.983 186.222 645.983 185.383V169.068C653.917 162.092 664.207 158.231 674.875 158.23C685.542 158.229 695.834 162.087 703.769 169.062Z" fill="white"/>
<path opacity="0.3" d="M700.955 189.922C700.208 190.306 699.376 190.506 698.532 190.504H651.22C650.378 190.505 649.548 190.307 648.802 189.927C650.943 184.887 654.563 180.581 659.204 177.551C663.844 174.522 669.298 172.905 674.877 172.904C680.456 172.904 685.91 174.52 690.551 177.549C695.192 180.577 698.812 184.883 700.955 189.922V189.922Z" fill="white"/>
<path opacity="0.3" d="M690.658 190.196C690.206 190.428 689.703 190.549 689.192 190.548H660.562C660.053 190.548 659.551 190.429 659.099 190.198C660.395 187.149 662.585 184.543 665.393 182.71C668.201 180.877 671.502 179.898 674.877 179.898C678.253 179.898 681.554 180.875 684.362 182.708C687.171 184.541 689.361 187.146 690.658 190.196V190.196Z" fill="white"/>
<path d="M686.912 110.384C682.166 110.384 676.957 109.5 672.891 106.516C667.23 102.362 660.255 102.584 655.401 103.502C652.177 104.116 649.047 105.136 646.09 106.536L645.876 106.135C648.87 104.717 652.037 103.683 655.301 103.06C660.251 102.123 667.369 101.899 673.169 106.155C684.034 114.127 703.491 106.967 703.686 106.894L703.852 107.316C700.203 108.588 696.429 109.487 692.591 109.998C690.709 110.249 688.812 110.378 686.912 110.384Z" fill="white"/>
<path opacity="0.3" d="M645.981 106.335C645.981 106.335 661.933 102.555 673.03 107.731C684.127 112.906 703.778 107.693 703.778 107.693" fill="white"/>
<path opacity="0.3" d="M661.041 112.207C659.114 112.199 657.192 112.011 655.301 111.647C652.037 111.023 648.87 109.99 645.876 108.572L646.09 108.17C649.047 109.57 652.177 110.59 655.401 111.205C660.255 112.122 667.23 112.344 672.891 108.19C678.686 103.938 686.804 103.95 692.591 104.709C696.429 105.219 700.203 106.118 703.852 107.391L703.686 107.813C703.491 107.74 684.035 100.579 673.169 108.552C669.365 111.343 664.995 112.207 661.041 112.207Z" fill="white"/>
<path opacity="0.3" d="M661.119 110.386C653.112 110.386 646.002 107.576 645.895 107.533L646.071 107.114C646.23 107.178 662.044 113.425 672.912 107.129C683.969 100.724 703.638 106.441 703.836 106.5L703.702 106.933C703.506 106.875 684.029 101.214 673.148 107.518C669.434 109.669 665.162 110.386 661.119 110.386Z" fill="white"/>
<path opacity="0.3" d="M645.983 106.976C645.983 106.976 661.933 112.151 673.03 106.976C684.127 101.8 703.769 106.487 703.769 106.487" fill="white"/>
<path opacity="0.3" d="M645.983 106.335C645.983 106.335 661.933 98.193 673.03 106.335C684.127 114.478 703.769 107.105 703.769 107.105" fill="white"/>
<path d="M674.937 189.19C676.342 189.19 677.48 188.077 677.48 186.702C677.48 185.328 676.342 184.214 674.937 184.214C673.533 184.214 672.394 185.328 672.394 186.702C672.394 188.077 673.533 189.19 674.937 189.19Z" fill="white"/>
</g>
<defs>
<clipPath id="clip0">
<rect width="203.329" height="131.489" fill="white" transform="translate(580.671 61.6989)"/>
</clipPath>
</defs>
</svg>
