<svg width="785" height="558" viewBox="0 0 785 558" fill="none" xmlns="http://www.w3.org/2000/svg">
<path d="M99 -1C99 -1 206.214 0.202133 187.152 68.6263C178.683 99.0294 210.793 24.9884 242.605 42.7651C324.535 88.5477 200.173 216.882 251.889 264.769C302.369 311.511 310.428 268.117 310.428 313.18C310.428 393.199 269.684 405.632 310.428 438.01C333.366 456.239 448.382 412.115 479 438.01C505 460 458.253 452.335 507 474C579 506 650.772 349.794 682.246 427.378C701.538 474.931 679.469 349.794 732.235 349.794C785 349.794 785 490 785 490V-1H99Z" fill="#FFAE00" stroke="white" stroke-width="2"/>
</svg>
