<svg width="549" height="488" viewBox="0 0 549 488" fill="none" xmlns="http://www.w3.org/2000/svg">
<path d="M-66 361C-67 303.652 24.0132 218.832 69.0132 266.179C114.013 313.527 227.013 300.179 227.013 300.179C227.013 300.179 270.162 289.487 310 300.179C375.611 317.788 310 425 310 425C310 425 291 512.832 134 480.179C-22.9997 447.527 25.2107 377.461 -36 361C-40.7554 359.721 -44.8701 359.023 -48.3939 358.737C-57.2693 374.04 -65.6319 382.11 -66 361Z" fill="#C4C4C4"/>
<path d="M-66 361C-67 303.652 24.0132 218.832 69.0132 266.179C114.013 313.527 227.013 300.179 227.013 300.179C227.013 300.179 270.162 289.487 310 300.179C375.611 317.788 310 425 310 425C310 425 291 512.832 134 480.179C-22.9997 447.527 25.2107 377.461 -36 361C-83.6195 348.194 -67 393.652 -36 327C-5 260.348 -65 418.347 -66 361Z" stroke="#FFFEFE"/>
<g clip-path="url(#clip0)">
<path d="M117.983 345.836H135.033L177.049 325.421C177.049 325.421 206.887 310.298 204.451 339.031C202.015 367.763 197.753 406.325 197.753 406.325C197.753 406.325 184.356 398.764 177.049 401.032C169.742 403.301 174.613 354.909 174.613 354.909C174.613 354.909 114.938 390.447 109.458 385.91C103.977 381.373 102.759 349.616 102.759 349.616L117.983 345.836Z" fill="#2F2E41"/>
<path opacity="0.1" d="M117.983 345.836H135.033L177.049 325.421C177.049 325.421 206.887 310.298 204.451 339.031C202.015 367.763 197.753 406.325 197.753 406.325C197.753 406.325 184.356 398.764 177.049 401.032C169.742 403.301 174.613 354.909 174.613 354.909C174.613 354.909 114.938 390.447 109.458 385.91C103.977 381.373 102.759 349.616 102.759 349.616L117.983 345.836Z" fill="black"/>
<path d="M144.845 279.535L165.479 316.347L213.585 366.251C213.585 366.251 258.037 379.105 251.948 388.178C245.859 397.252 208.714 379.105 208.714 379.105C208.714 379.105 153.301 329.201 151.474 325.421C149.647 321.64 129.552 286.102 129.552 286.102L144.845 279.535Z" fill="#A0616A"/>
<path opacity="0.1" d="M144.845 279.535L165.479 316.347L213.585 366.251C213.585 366.251 258.037 379.105 251.948 388.178C245.859 397.252 208.714 379.105 208.714 379.105C208.714 379.105 153.301 329.201 151.474 325.421C149.647 321.64 129.552 286.102 129.552 286.102L144.845 279.535Z" fill="black"/>
<path d="M132.597 249.809L145.994 282.322C145.994 282.322 142.949 298.2 138.077 299.713C133.206 301.225 112.502 280.053 112.502 280.053L132.597 249.809Z" fill="#FFAE00"/>
<path opacity="0.1" d="M132.597 249.809L145.994 282.322C145.994 282.322 142.949 298.2 138.077 299.713C133.206 301.225 112.502 280.053 112.502 280.053L132.597 249.809Z" fill="#FFAE00"/>
<path d="M296.029 329.002L299.986 349.271C300.03 349.497 300.023 349.734 299.966 349.955L282.016 419.61C281.944 419.886 281.799 420.123 281.604 420.282C281.409 420.442 281.177 420.513 280.944 420.484C280.712 420.456 280.495 420.33 280.329 420.126C280.163 419.923 280.058 419.655 280.031 419.367L277.548 392.232C277.532 392.052 277.546 391.87 277.592 391.697L294.069 328.908C294.137 328.646 294.273 328.419 294.455 328.261C294.637 328.104 294.856 328.024 295.077 328.035C295.299 328.046 295.512 328.146 295.684 328.32C295.855 328.495 295.977 328.734 296.029 329.002Z" fill="#2F2E41"/>
<path d="M294.573 330.713L298.227 348.104L282.394 411.618L278.741 391.959L294.573 330.713Z" fill="#F2F2F2"/>
<path d="M214.803 425.228C215.412 427.497 278.132 424.472 278.741 423.716C279.272 422.769 279.721 421.755 280.081 420.691C280.653 419.179 281.177 417.667 281.177 417.667L278.741 393.184L216.63 390.447C216.63 390.447 215.077 411.195 214.76 420.691C214.681 423.088 214.681 424.774 214.803 425.228Z" fill="#2F2E41"/>
<path opacity="0.1" d="M270.825 396.496L272.042 417.667H244.641V396.496H270.825Z" fill="black"/>
<path opacity="0.1" d="M235.507 403.301L235.67 403.26L234.898 412.374H219.675V403.301H235.507Z" fill="black"/>
<path opacity="0.1" d="M214.803 425.228C215.412 427.497 278.132 424.472 278.741 423.716C279.272 422.769 279.721 421.755 280.081 420.692H214.76C214.681 423.088 214.681 424.775 214.803 425.228Z" fill="black"/>
<path d="M141.731 239.223C156.865 239.223 169.133 223.989 169.133 205.198C169.133 186.406 156.865 171.172 141.731 171.172C126.597 171.172 114.329 186.406 114.329 205.198C114.329 223.989 126.597 239.223 141.731 239.223Z" fill="#A0616A"/>
<path d="M139.904 235.442C139.904 235.442 130.77 255.102 128.943 265.687C127.117 276.273 101.541 244.516 101.541 244.516L98.1923 233.552C98.1923 233.552 122.245 219.564 120.418 208.222C118.592 196.88 139.904 235.442 139.904 235.442Z" fill="#A0616A"/>
<path d="M144.776 294.42L169.742 335.25L229.417 390.447C229.417 390.447 272.652 401.789 262.909 410.106C253.166 418.423 225.155 402.545 225.155 402.545C225.155 402.545 164.87 362.47 152.083 345.836C139.295 329.201 115.547 301.225 115.547 301.225L144.776 294.42Z" fill="#A0616A"/>
<path d="M111.284 357.934L118.592 372.3L162.202 355.264C171.77 351.526 182.263 352.901 190.75 359.54C198.362 365.495 203.233 374.946 192.272 388.934C170.351 416.911 155.736 401.788 155.736 401.788C155.736 401.788 82.0556 444.887 69.8769 423.716C57.6983 402.545 57.0894 391.959 57.0894 391.959C57.0894 391.959 103.977 355.665 111.284 357.934Z" fill="#2F2E41"/>
<path d="M202.624 407.837C202.624 407.837 222.11 423.716 198.971 431.277C175.831 438.838 158.781 428.253 158.781 428.253C158.781 428.253 138.686 428.253 138.686 415.399C138.686 402.545 145.385 401.032 145.385 401.032L166.088 404.813C166.088 404.813 191.055 396.496 202.624 407.837Z" fill="#D0CDE1"/>
<path d="M164.21 196.638C166.075 197.671 167.925 198.893 169.952 199.193C171.98 199.492 174.289 198.613 175.248 196.375C175.767 195.166 175.826 193.744 175.85 192.375C175.923 188.223 175.682 183.734 173.563 180.521C172.214 178.476 170.246 177.187 168.85 175.192C167.85 173.762 167.184 172.029 166.467 170.358C163.752 164.027 159.733 157.942 154.147 156.117C151.814 155.355 149.367 155.392 146.955 155.434L132.887 155.681C130.611 155.72 128.299 155.767 126.12 156.585C121.592 158.285 118.295 163.013 115.275 167.535C113.016 170.918 110.751 174.335 109.056 178.193C106.625 183.822 105.396 190.131 105.486 196.517C105.467 198.155 105.637 199.788 105.992 201.366C106.406 202.813 106.92 204.213 107.526 205.552C110.165 211.986 111.731 220.023 108.76 226.229C113.921 223.611 119.028 220.179 122.432 214.697C123.955 212.245 125.15 209.374 127.179 207.574C129.209 205.775 132.516 205.619 133.819 208.26C134.266 209.328 134.497 210.516 134.49 211.721C134.585 213.703 134.582 215.762 135.259 217.561C135.936 219.361 137.549 220.813 139.088 220.274C141.74 219.347 141.486 214.294 143.528 211.999C145.078 210.256 147.471 210.589 149.463 209.798C151.785 208.876 153.526 206.379 154.519 203.615C155.273 201.514 155.262 196.016 156.69 194.878C158.48 193.452 162.551 195.72 164.21 196.638Z" fill="#2F2E41"/>
<path d="M96.0171 229.966C97.2498 229.557 98.5476 229.561 99.7787 229.977C103.688 231.28 112.45 234.73 114.329 239.979C116.765 246.784 125.29 257.37 125.29 257.37C125.29 257.37 136.86 271.736 134.424 281.566C131.988 291.395 122.854 302.737 122.854 302.737C122.854 302.737 125.29 349.616 113.111 361.714C100.932 373.812 96.061 365.495 96.061 376.837C96.061 388.178 58.3072 423.716 51 401.789C51 401.789 54.6536 360.958 53.4357 346.592C52.2354 332.433 53.9926 244.093 96.0171 229.966Z" fill="#FFF734"/>
<path d="M115.547 249.053C115.547 249.053 152.692 283.078 145.994 297.444C145.994 297.444 123.463 311.054 118.592 310.298C113.72 309.542 94.8432 283.078 89.9717 280.81C85.1002 278.541 82.6645 237.711 115.547 249.053Z" fill="#FFAE00"/>
</g>
<defs>
<clipPath id="clip0">
<rect width="498" height="434" fill="white" transform="translate(51)"/>
</clipPath>
</defs>
</svg>
