<svg width="120" height="20" viewBox="0 0 120 20" fill="none" xmlns="http://www.w3.org/2000/svg">
<path d="M0.452957 13.64L5.85296 7.32H0.692957V5.02H9.73296V6.38L4.33296 12.7H9.63296V15H0.452957V13.64ZM14.7814 15.16C13.9414 15.16 13.1947 15.0067 12.5414 14.7C11.9014 14.38 11.4014 13.94 11.0414 13.38C10.6814 12.8067 10.5014 12.1533 10.5014 11.42V8.84C10.5014 8.05333 10.6814 7.36 11.0414 6.76C11.4014 6.16 11.9014 5.69333 12.5414 5.36C13.1947 5.02667 13.9414 4.86 14.7814 4.86H16.3814C17.6614 4.86 18.6881 5.22 19.4614 5.94C20.2347 6.66 20.6214 7.62 20.6214 8.82V10.94H13.2214V11.42C13.2214 11.86 13.3614 12.2133 13.6414 12.48C13.9214 12.7467 14.3014 12.88 14.7814 12.88H16.3414C16.8081 12.88 17.1814 12.78 17.4614 12.58C17.7547 12.3667 17.9014 12.0933 17.9014 11.76H20.5814C20.5814 12.4267 20.4014 13.02 20.0414 13.54C19.6814 14.06 19.1747 14.46 18.5214 14.74C17.8814 15.02 17.1414 15.16 16.3014 15.16H14.7814ZM17.9414 8.98V8.82C17.9414 8.3 17.8014 7.88667 17.5214 7.58C17.2414 7.26 16.8681 7.1 16.4014 7.1H14.7814C14.3014 7.1 13.9147 7.26667 13.6214 7.6C13.3281 7.93333 13.1814 8.37333 13.1814 8.92V8.98H17.9414ZM26.7067 15C25.5334 15 24.6734 14.7333 24.1267 14.2C23.58 13.6667 23.3067 12.84 23.3067 11.72V7.34H21.5467V5.02H23.3867V2H26.0267V5.02H28.6267V7.34H26.0267V11.6C26.0267 11.9733 26.0934 12.2467 26.2267 12.42C26.3734 12.5933 26.6 12.68 26.9067 12.68H28.6267V15H26.7067ZM33.4755 15.16C32.4355 15.16 31.5955 14.9 30.9555 14.38C30.3155 13.86 29.9955 13.1733 29.9955 12.32V11.58C29.9955 10.74 30.3288 10.0667 30.9955 9.56C31.6621 9.04 32.5421 8.78 33.6355 8.78H34.8555C35.2021 8.78 35.5755 8.82667 35.9755 8.92C36.3755 9.01333 36.7421 9.14 37.0755 9.3V8.26C37.0755 7.92667 36.9621 7.66 36.7355 7.46C36.5221 7.24667 36.2355 7.14 35.8755 7.14H34.1555C33.7821 7.14 33.4821 7.22667 33.2555 7.4C33.0288 7.57333 32.9155 7.80667 32.9155 8.1H30.2755C30.2755 7.12667 30.6288 6.34667 31.3355 5.76C32.0555 5.16 32.9955 4.86 34.1555 4.86H35.8755C37.0488 4.86 37.9955 5.17333 38.7155 5.8C39.4355 6.41333 39.7955 7.23333 39.7955 8.26V15H37.2755V13.8C36.9555 14.2133 36.5621 14.5467 36.0955 14.8C35.6288 15.04 35.1688 15.16 34.7155 15.16H33.4755ZM34.9155 13.08C35.4088 13.08 35.8488 12.9533 36.2355 12.7C36.6221 12.4467 36.9021 12.1067 37.0755 11.68V11.34C36.8621 11.18 36.5621 11.0533 36.1755 10.96C35.8021 10.8667 35.4021 10.82 34.9755 10.82H33.7155C33.3955 10.82 33.1355 10.9 32.9355 11.06C32.7355 11.22 32.6355 11.4333 32.6355 11.7V12.22C32.6355 12.4733 32.7421 12.68 32.9555 12.84C33.1821 13 33.4755 13.08 33.8355 13.08H34.9155ZM63.3872 15.16C62.2005 15.16 61.2405 14.8 60.5072 14.08C59.7872 13.36 59.4272 12.4133 59.4272 11.24V8.96C59.4272 8.14667 59.6005 7.43333 59.9472 6.82C60.2938 6.19333 60.7805 5.71333 61.4072 5.38C62.0338 5.03333 62.7605 4.86 63.5872 4.86H64.6872C65.0738 4.86 65.4672 4.94667 65.8672 5.12C66.2672 5.28 66.6005 5.5 66.8672 5.78V0.999999H69.5872V15H67.0672V13.68C66.8005 14.12 66.4405 14.48 65.9872 14.76C65.5338 15.0267 65.0605 15.16 64.5672 15.16H63.3872ZM64.8672 12.82C65.4138 12.82 65.8672 12.6267 66.2272 12.24C66.6005 11.84 66.8138 11.3133 66.8672 10.66V8.92C66.7738 8.4 66.5672 7.98667 66.2472 7.68C65.9405 7.36 65.5738 7.2 65.1472 7.2H63.9272C63.3938 7.2 62.9605 7.38 62.6272 7.74C62.3072 8.1 62.1472 8.57333 62.1472 9.16V11.04C62.1472 11.5733 62.2938 12.0067 62.5872 12.34C62.8805 12.66 63.2605 12.82 63.7272 12.82H64.8672ZM73.6175 4.08C73.0975 4.08 72.6775 3.93333 72.3575 3.64C72.0508 3.33333 71.8975 2.93333 71.8975 2.44C71.8975 1.94667 72.0508 1.55333 72.3575 1.26C72.6775 0.953333 73.0975 0.799999 73.6175 0.799999C74.1375 0.799999 74.5508 0.953333 74.8575 1.26C75.1775 1.55333 75.3375 1.94667 75.3375 2.44C75.3375 2.93333 75.1775 3.33333 74.8575 3.64C74.5508 3.93333 74.1375 4.08 73.6175 4.08ZM72.2575 5.02H74.9775V15H72.2575V5.02ZM81.5392 19.06C80.4725 19.06 79.5859 18.7533 78.8792 18.14C78.1725 17.54 77.7792 16.7467 77.6992 15.76H80.3792C80.4059 16.0533 80.5259 16.2867 80.7392 16.46C80.9525 16.6467 81.2192 16.74 81.5392 16.74H83.3392C83.7525 16.74 84.0859 16.5667 84.3392 16.22C84.6059 15.8867 84.7392 15.4467 84.7392 14.9V13.96C84.4725 14.2533 84.1459 14.4867 83.7592 14.66C83.3859 14.8333 83.0259 14.92 82.6792 14.92H81.2992C80.0859 14.92 79.1059 14.56 78.3592 13.84C77.6259 13.12 77.2592 12.1733 77.2592 11V8.96C77.2592 8.14667 77.4325 7.43333 77.7792 6.82C78.1259 6.19333 78.6125 5.71333 79.2392 5.38C79.8659 5.03333 80.5859 4.86 81.3992 4.86H82.5592C83.0125 4.86 83.4525 4.96667 83.8792 5.18C84.3192 5.39333 84.6725 5.67333 84.9392 6.02V5.02H87.4592V14.9C87.4592 15.7267 87.2859 16.4533 86.9392 17.08C86.6059 17.7067 86.1259 18.1933 85.4992 18.54C84.8725 18.8867 84.1525 19.06 83.3392 19.06H81.5392ZM82.8592 12.62C83.3659 12.62 83.7925 12.4133 84.1392 12C84.4859 11.5733 84.6859 11.02 84.7392 10.34V8.96C84.6859 8.42667 84.5059 8 84.1992 7.68C83.8925 7.36 83.5059 7.2 83.0392 7.2H81.6392C81.1459 7.2 80.7459 7.38 80.4392 7.74C80.1325 8.1 79.9792 8.57333 79.9792 9.16V10.8C79.9792 11.3467 80.1192 11.7867 80.3992 12.12C80.6792 12.4533 81.0392 12.62 81.4792 12.62H82.8592ZM91.5081 4.08C90.9881 4.08 90.5681 3.93333 90.2481 3.64C89.9414 3.33333 89.7881 2.93333 89.7881 2.44C89.7881 1.94667 89.9414 1.55333 90.2481 1.26C90.5681 0.953333 90.9881 0.799999 91.5081 0.799999C92.0281 0.799999 92.4414 0.953333 92.7481 1.26C93.0681 1.55333 93.2281 1.94667 93.2281 2.44C93.2281 2.93333 93.0681 3.33333 92.7481 3.64C92.4414 3.93333 92.0281 4.08 91.5081 4.08ZM90.1481 5.02H92.8681V15H90.1481V5.02ZM99.9098 15C98.7365 15 97.8765 14.7333 97.3298 14.2C96.7832 13.6667 96.5098 12.84 96.5098 11.72V7.34H94.7498V5.02H96.5898V2H99.2298V5.02H101.83V7.34H99.2298V11.6C99.2298 11.9733 99.2965 12.2467 99.4298 12.42C99.5765 12.5933 99.8032 12.68 100.11 12.68H101.83V15H99.9098ZM106.679 15.16C105.639 15.16 104.799 14.9 104.159 14.38C103.519 13.86 103.199 13.1733 103.199 12.32V11.58C103.199 10.74 103.532 10.0667 104.199 9.56C104.865 9.04 105.745 8.78 106.839 8.78H108.059C108.405 8.78 108.779 8.82667 109.179 8.92C109.579 9.01333 109.945 9.14 110.279 9.3V8.26C110.279 7.92667 110.165 7.66 109.939 7.46C109.725 7.24667 109.439 7.14 109.079 7.14H107.359C106.985 7.14 106.685 7.22667 106.459 7.4C106.232 7.57333 106.119 7.80667 106.119 8.1H103.479C103.479 7.12667 103.832 6.34667 104.539 5.76C105.259 5.16 106.199 4.86 107.359 4.86H109.079C110.252 4.86 111.199 5.17333 111.919 5.8C112.639 6.41333 112.999 7.23333 112.999 8.26V15H110.479V13.8C110.159 14.2133 109.765 14.5467 109.299 14.8C108.832 15.04 108.372 15.16 107.919 15.16H106.679ZM108.119 13.08C108.612 13.08 109.052 12.9533 109.439 12.7C109.825 12.4467 110.105 12.1067 110.279 11.68V11.34C110.065 11.18 109.765 11.0533 109.379 10.96C109.005 10.8667 108.605 10.82 108.179 10.82H106.919C106.599 10.82 106.339 10.9 106.139 11.06C105.939 11.22 105.839 11.4333 105.839 11.7V12.22C105.839 12.4733 105.945 12.68 106.159 12.84C106.385 13 106.679 13.08 107.039 13.08H108.119ZM118.638 15C117.452 15 116.578 14.7533 116.018 14.26C115.472 13.7533 115.198 12.9733 115.198 11.92V0.999999H117.918V11.76C117.918 12.08 117.992 12.3133 118.138 12.46C118.285 12.6067 118.518 12.68 118.838 12.68H119.918V15H118.638Z" fill="#FFAE00"/>
<path d="M41.9951 5.02H44.5151V6.1C44.7951 5.72667 45.1485 5.42667 45.5751 5.2C46.0151 4.97333 46.4418 4.86 46.8551 4.86H48.1151C48.9151 4.86 49.6218 5.02667 50.2351 5.36C50.8485 5.68 51.3218 6.13333 51.6551 6.72C51.9885 7.30667 52.1551 7.98 52.1551 8.74V10.98C52.1551 11.8067 51.9885 12.54 51.6551 13.18C51.3218 13.8067 50.8551 14.2933 50.2551 14.64C49.6551 14.9867 48.9618 15.16 48.1751 15.16H46.8751C46.5018 15.16 46.1151 15.0733 45.7151 14.9C45.3285 14.7267 44.9951 14.4933 44.7151 14.2V19H41.9951V5.02ZM47.8151 12.82C48.3085 12.82 48.7018 12.6333 48.9951 12.26C49.2885 11.8867 49.4351 11.3933 49.4351 10.78V8.94C49.4351 8.42 49.2818 8 48.9751 7.68C48.6818 7.36 48.2885 7.2 47.7951 7.2H46.5751C46.1885 7.2 45.8218 7.36 45.4751 7.68C45.1285 7.98667 44.8751 8.38667 44.7151 8.88V10.86C44.7818 11.4467 44.9818 11.92 45.3151 12.28C45.6618 12.64 46.0818 12.82 46.5751 12.82H47.8151ZM55.7855 4.08C55.2655 4.08 54.8455 3.93333 54.5255 3.64C54.2188 3.33333 54.0655 2.93333 54.0655 2.44C54.0655 1.94667 54.2188 1.55333 54.5255 1.26C54.8455 0.953333 55.2655 0.799999 55.7855 0.799999C56.3055 0.799999 56.7188 0.953333 57.0255 1.26C57.3455 1.55333 57.5055 1.94667 57.5055 2.44C57.5055 2.93333 57.3455 3.33333 57.0255 3.64C56.7188 3.93333 56.3055 4.08 55.7855 4.08ZM54.4255 5.02H57.1455V15H54.4255V5.02Z" fill="#FFF734"/>
</svg>
