<svg width="189" height="10" viewBox="0 0 189 10" fill="none" xmlns="http://www.w3.org/2000/svg">
<rect x="151.551" y="2" width="5" height="7" fill="#FFAE00"/>
<rect x="151.551" y="2" width="5" height="7" stroke="black"/>
<path d="M1.96496 3.36H0.188957V2.4H4.84496V3.36H3.06896V8H1.96496V3.36ZM5.40852 2.4H6.49652V4.408C6.61385 4.26933 6.75785 4.15733 6.92852 4.072C7.10452 3.98667 7.27252 3.944 7.43252 3.944H7.92852C8.35519 3.944 8.69652 4.07733 8.95252 4.344C9.21385 4.61067 9.34452 4.96267 9.34452 5.4V8H8.25652V5.44C8.25652 5.27467 8.21119 5.14133 8.12052 5.04C8.03519 4.93867 7.92319 4.888 7.78452 4.888H7.28852C7.10185 4.888 6.93385 4.95733 6.78452 5.096C6.64052 5.22933 6.54452 5.40533 6.49652 5.624V8H5.40852V2.4ZM11.773 8.064C11.437 8.064 11.1384 8.00267 10.877 7.88C10.621 7.752 10.421 7.576 10.277 7.352C10.133 7.12267 10.061 6.86133 10.061 6.568V5.536C10.061 5.22133 10.133 4.944 10.277 4.704C10.421 4.464 10.621 4.27733 10.877 4.144C11.1384 4.01067 11.437 3.944 11.773 3.944H12.413C12.925 3.944 13.3357 4.088 13.645 4.376C13.9544 4.664 14.109 5.048 14.109 5.528V6.376H11.149V6.568C11.149 6.744 11.205 6.88533 11.317 6.992C11.429 7.09867 11.581 7.152 11.773 7.152H12.397C12.5837 7.152 12.733 7.112 12.845 7.032C12.9624 6.94667 13.021 6.83733 13.021 6.704H14.093C14.093 6.97067 14.021 7.208 13.877 7.416C13.733 7.624 13.5304 7.784 13.269 7.896C13.013 8.008 12.717 8.064 12.381 8.064H11.773ZM13.037 5.592V5.528C13.037 5.32 12.981 5.15467 12.869 5.032C12.757 4.904 12.6077 4.84 12.421 4.84H11.773C11.581 4.84 11.4264 4.90667 11.309 5.04C11.1917 5.17333 11.133 5.34933 11.133 5.568V5.592H13.037ZM19.0787 8.064C18.9134 8.064 18.7454 8.01067 18.5747 7.904C18.404 7.79733 18.2654 7.65867 18.1587 7.488V8H17.1507V2.4H18.2387V4.32C18.3454 4.208 18.476 4.11733 18.6307 4.048C18.7907 3.97867 18.9427 3.944 19.0867 3.944H19.6467C19.956 3.944 20.228 4.01067 20.4627 4.144C20.7027 4.272 20.8867 4.456 21.0147 4.696C21.148 4.936 21.2147 5.21333 21.2147 5.528V6.44C21.2147 6.76 21.148 7.04267 21.0147 7.288C20.8814 7.53333 20.6947 7.72533 20.4547 7.864C20.2147 7.99733 19.94 8.064 19.6307 8.064H19.0787ZM19.5027 7.112C19.6894 7.112 19.8387 7.04267 19.9507 6.904C20.068 6.76533 20.1267 6.584 20.1267 6.36V5.608C20.1267 5.39467 20.0707 5.224 19.9587 5.096C19.8467 4.96267 19.7 4.896 19.5187 4.896H19.0227C18.8094 4.896 18.6307 4.97067 18.4867 5.12C18.3427 5.26933 18.26 5.46667 18.2387 5.712V6.4C18.276 6.61333 18.3614 6.78667 18.4947 6.92C18.6334 7.048 18.796 7.112 18.9827 7.112H19.5027ZM23.5308 8.064C23.1948 8.064 22.8962 8.00267 22.6348 7.88C22.3788 7.752 22.1788 7.576 22.0348 7.352C21.8908 7.12267 21.8188 6.86133 21.8188 6.568V5.536C21.8188 5.22133 21.8908 4.944 22.0348 4.704C22.1788 4.464 22.3788 4.27733 22.6348 4.144C22.8962 4.01067 23.1948 3.944 23.5308 3.944H24.1708C24.6828 3.944 25.0935 4.088 25.4028 4.376C25.7122 4.664 25.8668 5.048 25.8668 5.528V6.376H22.9068V6.568C22.9068 6.744 22.9628 6.88533 23.0748 6.992C23.1868 7.09867 23.3388 7.152 23.5308 7.152H24.1548C24.3415 7.152 24.4908 7.112 24.6028 7.032C24.7202 6.94667 24.7788 6.83733 24.7788 6.704H25.8508C25.8508 6.97067 25.7788 7.208 25.6348 7.416C25.4908 7.624 25.2882 7.784 25.0268 7.896C24.7708 8.008 24.4748 8.064 24.1388 8.064H23.5308ZM24.7948 5.592V5.528C24.7948 5.32 24.7388 5.15467 24.6268 5.032C24.5148 4.904 24.3655 4.84 24.1788 4.84H23.5308C23.3388 4.84 23.1842 4.90667 23.0668 5.04C22.9495 5.17333 22.8908 5.34933 22.8908 5.568V5.592H24.7948ZM28.0198 8.064C27.5345 8.064 27.1452 7.936 26.8518 7.68C26.5585 7.424 26.4118 7.088 26.4118 6.672H27.4838C27.4838 6.816 27.5318 6.93333 27.6278 7.024C27.7292 7.10933 27.8598 7.152 28.0198 7.152H28.7398C29.0598 7.152 29.2198 7.064 29.2198 6.888V6.752C29.2198 6.69867 29.1932 6.65067 29.1398 6.608C29.0865 6.56 29.0145 6.528 28.9238 6.512L27.5398 6.272C27.2145 6.21867 26.9558 6.104 26.7638 5.928C26.5772 5.74667 26.4838 5.536 26.4838 5.296V5.032C26.4838 4.69067 26.6225 4.424 26.8998 4.232C27.1825 4.04 27.5745 3.944 28.0758 3.944H28.6998C29.1478 3.944 29.5078 4.064 29.7798 4.304C30.0572 4.53867 30.1958 4.85067 30.1958 5.24H29.1238C29.1238 5.12267 29.0838 5.02933 29.0038 4.96C28.9292 4.89067 28.8278 4.856 28.6998 4.856H28.0918C27.7452 4.856 27.5718 4.936 27.5718 5.096V5.224C27.5718 5.28267 27.5932 5.33333 27.6358 5.376C27.6838 5.41333 27.7505 5.44 27.8358 5.456L29.2918 5.72C29.5958 5.77333 29.8412 5.888 30.0278 6.064C30.2145 6.23467 30.3078 6.42933 30.3078 6.648V6.936C30.3078 7.28267 30.1638 7.55733 29.8758 7.76C29.5932 7.96267 29.2145 8.064 28.7398 8.064H28.0198ZM32.6916 8C32.2222 8 31.8782 7.89333 31.6596 7.68C31.4409 7.46667 31.3316 7.136 31.3316 6.688V4.936H30.6276V4.008H31.3636V2.8H32.4196V4.008H33.4596V4.936H32.4196V6.64C32.4196 6.78933 32.4462 6.89867 32.4996 6.968C32.5582 7.03733 32.6489 7.072 32.7716 7.072H33.4596V8H32.6916ZM38.0775 8.064C37.7415 8.064 37.4429 7.99733 37.1815 7.864C36.9255 7.73067 36.7255 7.544 36.5815 7.304C36.4429 7.064 36.3735 6.78667 36.3735 6.472V5.536C36.3735 5.22133 36.4429 4.944 36.5815 4.704C36.7255 4.464 36.9255 4.27733 37.1815 4.144C37.4375 4.01067 37.7335 3.944 38.0695 3.944H38.7015C39.0215 3.944 39.3042 4.008 39.5495 4.136C39.7949 4.264 39.9842 4.44533 40.1175 4.68C40.2509 4.90933 40.3175 5.176 40.3175 5.48H39.2375C39.2375 5.29867 39.1869 5.15467 39.0855 5.048C38.9895 4.936 38.8615 4.88 38.7015 4.88H38.0855C37.8989 4.88 37.7469 4.94933 37.6295 5.088C37.5175 5.22133 37.4615 5.39733 37.4615 5.616V6.392C37.4615 6.61067 37.5202 6.78933 37.6375 6.928C37.7549 7.06133 37.9069 7.128 38.0935 7.128H38.7095C38.8802 7.128 39.0162 7.06667 39.1175 6.944C39.2242 6.82133 39.2775 6.65867 39.2775 6.456H40.3575C40.3575 6.94133 40.2055 7.33067 39.9015 7.624C39.6029 7.91733 39.2055 8.064 38.7095 8.064H38.0775ZM41.0101 2.4H42.0981V4.408C42.2154 4.26933 42.3594 4.15733 42.5301 4.072C42.7061 3.98667 42.8741 3.944 43.0341 3.944H43.5301C43.9567 3.944 44.2981 4.07733 44.5541 4.344C44.8154 4.61067 44.9461 4.96267 44.9461 5.4V8H43.8581V5.44C43.8581 5.27467 43.8127 5.14133 43.7221 5.04C43.6367 4.93867 43.5247 4.888 43.3861 4.888H42.8901C42.7034 4.888 42.5354 4.95733 42.3861 5.096C42.2421 5.22933 42.1461 5.40533 42.0981 5.624V8H41.0101V2.4ZM47.3666 8.064C47.0306 8.064 46.7319 8 46.4706 7.872C46.2146 7.73867 46.0146 7.552 45.8706 7.312C45.7319 7.072 45.6626 6.79467 45.6626 6.48V5.544C45.6626 5.22933 45.7346 4.952 45.8786 4.712C46.0226 4.46667 46.2226 4.27733 46.4786 4.144C46.7399 4.01067 47.0386 3.944 47.3746 3.944H48.0946C48.4306 3.944 48.7266 4.01067 48.9826 4.144C49.2439 4.27733 49.4466 4.46667 49.5906 4.712C49.7346 4.952 49.8066 5.22933 49.8066 5.544V6.48C49.8066 6.79467 49.7346 7.072 49.5906 7.312C49.4466 7.552 49.2439 7.73867 48.9826 7.872C48.7266 8 48.4279 8.064 48.0866 8.064H47.3666ZM48.0706 7.128C48.2679 7.128 48.4252 7.06133 48.5426 6.928C48.6599 6.78933 48.7186 6.61067 48.7186 6.392V5.616C48.7186 5.39733 48.6599 5.22133 48.5426 5.088C48.4252 4.94933 48.2706 4.88 48.0786 4.88H47.3906C47.1986 4.88 47.0439 4.94933 46.9266 5.088C46.8092 5.22133 46.7506 5.39733 46.7506 5.616V6.392C46.7506 6.61067 46.8092 6.78933 46.9266 6.928C47.0439 7.06133 47.1959 7.128 47.3826 7.128H48.0706ZM51.2606 3.632C51.0526 3.632 50.8846 3.57333 50.7566 3.456C50.6339 3.33333 50.5726 3.17333 50.5726 2.976C50.5726 2.77867 50.6339 2.62133 50.7566 2.504C50.8846 2.38133 51.0526 2.32 51.2606 2.32C51.4686 2.32 51.6339 2.38133 51.7566 2.504C51.8846 2.62133 51.9486 2.77867 51.9486 2.976C51.9486 3.17333 51.8846 3.33333 51.7566 3.456C51.6339 3.57333 51.4686 3.632 51.2606 3.632ZM50.7166 4.008H51.8046V8H50.7166V4.008ZM54.4213 8.064C54.0853 8.064 53.7866 7.99733 53.5253 7.864C53.2693 7.73067 53.0693 7.544 52.9253 7.304C52.7866 7.064 52.7173 6.78667 52.7173 6.472V5.536C52.7173 5.22133 52.7866 4.944 52.9253 4.704C53.0693 4.464 53.2693 4.27733 53.5253 4.144C53.7813 4.01067 54.0773 3.944 54.4133 3.944H55.0453C55.3653 3.944 55.6479 4.008 55.8933 4.136C56.1386 4.264 56.3279 4.44533 56.4613 4.68C56.5946 4.90933 56.6613 5.176 56.6613 5.48H55.5813C55.5813 5.29867 55.5306 5.15467 55.4293 5.048C55.3333 4.936 55.2053 4.88 55.0453 4.88H54.4293C54.2426 4.88 54.0906 4.94933 53.9733 5.088C53.8613 5.22133 53.8053 5.39733 53.8053 5.616V6.392C53.8053 6.61067 53.8639 6.78933 53.9813 6.928C54.0986 7.06133 54.2506 7.128 54.4373 7.128H55.0533C55.2239 7.128 55.3599 7.06667 55.4613 6.944C55.5679 6.82133 55.6213 6.65867 55.6213 6.456H56.7013C56.7013 6.94133 56.5493 7.33067 56.2453 7.624C55.9466 7.91733 55.5493 8.064 55.0533 8.064H54.4213ZM58.9058 8.064C58.5698 8.064 58.2712 8.00267 58.0098 7.88C57.7538 7.752 57.5538 7.576 57.4098 7.352C57.2658 7.12267 57.1938 6.86133 57.1938 6.568V5.536C57.1938 5.22133 57.2658 4.944 57.4098 4.704C57.5538 4.464 57.7538 4.27733 58.0098 4.144C58.2712 4.01067 58.5698 3.944 58.9058 3.944H59.5458C60.0578 3.944 60.4685 4.088 60.7778 4.376C61.0872 4.664 61.2418 5.048 61.2418 5.528V6.376H58.2818V6.568C58.2818 6.744 58.3378 6.88533 58.4498 6.992C58.5618 7.09867 58.7138 7.152 58.9058 7.152H59.5298C59.7165 7.152 59.8658 7.112 59.9778 7.032C60.0952 6.94667 60.1538 6.83733 60.1538 6.704H61.2258C61.2258 6.97067 61.1538 7.208 61.0098 7.416C60.8658 7.624 60.6632 7.784 60.4018 7.896C60.1458 8.008 59.8498 8.064 59.5138 8.064H58.9058ZM60.1698 5.592V5.528C60.1698 5.32 60.1138 5.15467 60.0018 5.032C59.8898 4.904 59.7405 4.84 59.5538 4.84H58.9058C58.7138 4.84 58.5592 4.90667 58.4418 5.04C58.3245 5.17333 58.2658 5.34933 58.2658 5.568V5.592H60.1698ZM63.3948 8.064C62.9095 8.064 62.5202 7.936 62.2268 7.68C61.9335 7.424 61.7868 7.088 61.7868 6.672H62.8588C62.8588 6.816 62.9068 6.93333 63.0028 7.024C63.1042 7.10933 63.2348 7.152 63.3948 7.152H64.1148C64.4348 7.152 64.5948 7.064 64.5948 6.888V6.752C64.5948 6.69867 64.5682 6.65067 64.5148 6.608C64.4615 6.56 64.3895 6.528 64.2988 6.512L62.9148 6.272C62.5895 6.21867 62.3308 6.104 62.1388 5.928C61.9522 5.74667 61.8588 5.536 61.8588 5.296V5.032C61.8588 4.69067 61.9975 4.424 62.2748 4.232C62.5575 4.04 62.9495 3.944 63.4508 3.944H64.0748C64.5228 3.944 64.8828 4.064 65.1548 4.304C65.4322 4.53867 65.5708 4.85067 65.5708 5.24H64.4988C64.4988 5.12267 64.4588 5.02933 64.3788 4.96C64.3042 4.89067 64.2028 4.856 64.0748 4.856H63.4668C63.1202 4.856 62.9468 4.936 62.9468 5.096V5.224C62.9468 5.28267 62.9682 5.33333 63.0108 5.376C63.0588 5.41333 63.1255 5.44 63.2108 5.456L64.6668 5.72C64.9708 5.77333 65.2162 5.888 65.4028 6.064C65.5895 6.23467 65.6828 6.42933 65.6828 6.648V6.936C65.6828 7.28267 65.5388 7.55733 65.2508 7.76C64.9682 7.96267 64.5895 8.064 64.1148 8.064H63.3948ZM69.9381 8.064C69.5221 8.064 69.1861 7.96 68.9301 7.752C68.6741 7.544 68.5461 7.26933 68.5461 6.928V6.632C68.5461 6.296 68.6795 6.02667 68.9461 5.824C69.2128 5.616 69.5648 5.512 70.0021 5.512H70.4901C70.6288 5.512 70.7781 5.53067 70.9381 5.568C71.0981 5.60533 71.2448 5.656 71.3781 5.72V5.304C71.3781 5.17067 71.3328 5.064 71.2421 4.984C71.1568 4.89867 71.0421 4.856 70.8981 4.856H70.2101C70.0608 4.856 69.9408 4.89067 69.8501 4.96C69.7595 5.02933 69.7141 5.12267 69.7141 5.24H68.6581C68.6581 4.85067 68.7995 4.53867 69.0821 4.304C69.3701 4.064 69.7461 3.944 70.2101 3.944H70.8981C71.3675 3.944 71.7461 4.06933 72.0341 4.32C72.3221 4.56533 72.4661 4.89333 72.4661 5.304V8H71.4581V7.52C71.3301 7.68533 71.1728 7.81867 70.9861 7.92C70.7995 8.016 70.6155 8.064 70.4341 8.064H69.9381ZM70.5141 7.232C70.7115 7.232 70.8875 7.18133 71.0421 7.08C71.1968 6.97867 71.3088 6.84267 71.3781 6.672V6.536C71.2928 6.472 71.1728 6.42133 71.0181 6.384C70.8688 6.34667 70.7088 6.328 70.5381 6.328H70.0341C69.9061 6.328 69.8021 6.36 69.7221 6.424C69.6421 6.488 69.6021 6.57333 69.6021 6.68V6.888C69.6021 6.98933 69.6448 7.072 69.7301 7.136C69.8208 7.2 69.9381 7.232 70.0821 7.232H70.5141ZM74.762 8.064C74.2767 8.064 73.8874 7.936 73.594 7.68C73.3007 7.424 73.154 7.088 73.154 6.672H74.226C74.226 6.816 74.274 6.93333 74.37 7.024C74.4714 7.10933 74.602 7.152 74.762 7.152H75.482C75.802 7.152 75.962 7.064 75.962 6.888V6.752C75.962 6.69867 75.9354 6.65067 75.882 6.608C75.8287 6.56 75.7567 6.528 75.666 6.512L74.282 6.272C73.9567 6.21867 73.698 6.104 73.506 5.928C73.3194 5.74667 73.226 5.536 73.226 5.296V5.032C73.226 4.69067 73.3647 4.424 73.642 4.232C73.9247 4.04 74.3167 3.944 74.818 3.944H75.442C75.89 3.944 76.25 4.064 76.522 4.304C76.7994 4.53867 76.938 4.85067 76.938 5.24H75.866C75.866 5.12267 75.826 5.02933 75.746 4.96C75.6714 4.89067 75.57 4.856 75.442 4.856H74.834C74.4874 4.856 74.314 4.936 74.314 5.096V5.224C74.314 5.28267 74.3354 5.33333 74.378 5.376C74.426 5.41333 74.4927 5.44 74.578 5.456L76.034 5.72C76.338 5.77333 76.5834 5.888 76.77 6.064C76.9567 6.23467 77.05 6.42933 77.05 6.648V6.936C77.05 7.28267 76.906 7.55733 76.618 7.76C76.3354 7.96267 75.9567 8.064 75.482 8.064H74.762ZM80.0413 4.008H81.0493V4.44C81.1613 4.29067 81.3027 4.17067 81.4733 4.08C81.6493 3.98933 81.82 3.944 81.9853 3.944H82.4893C82.8093 3.944 83.092 4.01067 83.3373 4.144C83.5827 4.272 83.772 4.45333 83.9053 4.688C84.0387 4.92267 84.1053 5.192 84.1053 5.496V6.392C84.1053 6.72267 84.0387 7.016 83.9053 7.272C83.772 7.52267 83.5853 7.71733 83.3453 7.856C83.1053 7.99467 82.828 8.064 82.5133 8.064H81.9933C81.844 8.064 81.6893 8.02933 81.5293 7.96C81.3747 7.89067 81.2413 7.79733 81.1293 7.68V9.6H80.0413V4.008ZM82.3693 7.128C82.5667 7.128 82.724 7.05333 82.8413 6.904C82.9587 6.75467 83.0173 6.55733 83.0173 6.312V5.576C83.0173 5.368 82.956 5.2 82.8333 5.072C82.716 4.944 82.5587 4.88 82.3613 4.88H81.8733C81.7187 4.88 81.572 4.944 81.4333 5.072C81.2947 5.19467 81.1933 5.35467 81.1293 5.552V6.344C81.156 6.57867 81.236 6.768 81.3693 6.912C81.508 7.056 81.676 7.128 81.8733 7.128H82.3693ZM86.1335 8.064C85.7175 8.064 85.3815 7.96 85.1255 7.752C84.8695 7.544 84.7415 7.26933 84.7415 6.928V6.632C84.7415 6.296 84.8748 6.02667 85.1415 5.824C85.4081 5.616 85.7601 5.512 86.1975 5.512H86.6855C86.8241 5.512 86.9735 5.53067 87.1335 5.568C87.2935 5.60533 87.4401 5.656 87.5735 5.72V5.304C87.5735 5.17067 87.5281 5.064 87.4375 4.984C87.3521 4.89867 87.2375 4.856 87.0935 4.856H86.4055C86.2561 4.856 86.1361 4.89067 86.0455 4.96C85.9548 5.02933 85.9095 5.12267 85.9095 5.24H84.8535C84.8535 4.85067 84.9948 4.53867 85.2775 4.304C85.5655 4.064 85.9415 3.944 86.4055 3.944H87.0935C87.5628 3.944 87.9415 4.06933 88.2295 4.32C88.5175 4.56533 88.6615 4.89333 88.6615 5.304V8H87.6535V7.52C87.5255 7.68533 87.3681 7.81867 87.1815 7.92C86.9948 8.016 86.8108 8.064 86.6295 8.064H86.1335ZM86.7095 7.232C86.9068 7.232 87.0828 7.18133 87.2375 7.08C87.3921 6.97867 87.5041 6.84267 87.5735 6.672V6.536C87.4881 6.472 87.3681 6.42133 87.2135 6.384C87.0641 6.34667 86.9041 6.328 86.7335 6.328H86.2295C86.1015 6.328 85.9975 6.36 85.9175 6.424C85.8375 6.488 85.7975 6.57333 85.7975 6.68V6.888C85.7975 6.98933 85.8401 7.072 85.9255 7.136C86.0161 7.2 86.1335 7.232 86.2775 7.232H86.7095ZM89.5413 4.008H90.5493V4.52C90.6507 4.36533 90.7947 4.24 90.9813 4.144C91.1733 4.04267 91.3733 3.992 91.5813 3.992H92.1253V4.936H91.5813C91.2987 4.936 91.0693 5.02133 90.8933 5.192C90.7173 5.36267 90.6293 5.58133 90.6293 5.848V8H89.5413V4.008ZM94.3478 8C93.8785 8 93.5345 7.89333 93.3158 7.68C93.0972 7.46667 92.9878 7.136 92.9878 6.688V4.936H92.2838V4.008H93.0198V2.8H94.0758V4.008H95.1158V4.936H94.0758V6.64C94.0758 6.78933 94.1025 6.89867 94.1558 6.968C94.2145 7.03733 94.3052 7.072 94.4278 7.072H95.1158V8H94.3478ZM95.8851 4.008H96.8931V4.488C97.0104 4.32267 97.1624 4.192 97.3491 4.096C97.5357 3.99467 97.7224 3.944 97.9091 3.944H98.3891C98.8157 3.944 99.1571 4.07733 99.4131 4.344C99.6744 4.61067 99.8051 4.96267 99.8051 5.4V8H98.7171V5.44C98.7171 5.27467 98.6717 5.14133 98.5811 5.04C98.4957 4.93867 98.3837 4.888 98.2451 4.888H97.7651C97.5784 4.888 97.4104 4.95733 97.2611 5.096C97.1171 5.22933 97.0211 5.40533 96.9731 5.624V8H95.8851V4.008ZM102.234 8.064C101.898 8.064 101.599 8.00267 101.338 7.88C101.082 7.752 100.882 7.576 100.738 7.352C100.594 7.12267 100.522 6.86133 100.522 6.568V5.536C100.522 5.22133 100.594 4.944 100.738 4.704C100.882 4.464 101.082 4.27733 101.338 4.144C101.599 4.01067 101.898 3.944 102.234 3.944H102.874C103.386 3.944 103.797 4.088 104.106 4.376C104.415 4.664 104.57 5.048 104.57 5.528V6.376H101.61V6.568C101.61 6.744 101.666 6.88533 101.778 6.992C101.89 7.09867 102.042 7.152 102.234 7.152H102.858C103.045 7.152 103.194 7.112 103.306 7.032C103.423 6.94667 103.482 6.83733 103.482 6.704H104.554C104.554 6.97067 104.482 7.208 104.338 7.416C104.194 7.624 103.991 7.784 103.73 7.896C103.474 8.008 103.178 8.064 102.842 8.064H102.234ZM103.498 5.592V5.528C103.498 5.32 103.442 5.15467 103.33 5.032C103.218 4.904 103.069 4.84 102.882 4.84H102.234C102.042 4.84 101.887 4.90667 101.77 5.04C101.653 5.17333 101.594 5.34933 101.594 5.568V5.592H103.498ZM105.307 4.008H106.315V4.52C106.416 4.36533 106.56 4.24 106.747 4.144C106.939 4.04267 107.139 3.992 107.347 3.992H107.891V4.936H107.347C107.064 4.936 106.835 5.02133 106.659 5.192C106.483 5.36267 106.395 5.58133 106.395 5.848V8H105.307V4.008ZM109.785 8.064C109.3 8.064 108.911 7.936 108.617 7.68C108.324 7.424 108.177 7.088 108.177 6.672H109.249C109.249 6.816 109.297 6.93333 109.393 7.024C109.495 7.10933 109.625 7.152 109.785 7.152H110.505C110.825 7.152 110.985 7.064 110.985 6.888V6.752C110.985 6.69867 110.959 6.65067 110.905 6.608C110.852 6.56 110.78 6.528 110.689 6.512L109.305 6.272C108.98 6.21867 108.721 6.104 108.529 5.928C108.343 5.74667 108.249 5.536 108.249 5.296V5.032C108.249 4.69067 108.388 4.424 108.665 4.232C108.948 4.04 109.34 3.944 109.841 3.944H110.465C110.913 3.944 111.273 4.064 111.545 4.304C111.823 4.53867 111.961 4.85067 111.961 5.24H110.889C110.889 5.12267 110.849 5.02933 110.769 4.96C110.695 4.89067 110.593 4.856 110.465 4.856H109.857C109.511 4.856 109.337 4.936 109.337 5.096V5.224C109.337 5.28267 109.359 5.33333 109.401 5.376C109.449 5.41333 109.516 5.44 109.601 5.456L111.057 5.72C111.361 5.77333 111.607 5.888 111.793 6.064C111.98 6.23467 112.073 6.42933 112.073 6.648V6.936C112.073 7.28267 111.929 7.55733 111.641 7.76C111.359 7.96267 110.98 8.064 110.505 8.064H109.785ZM115.753 3.632C115.545 3.632 115.377 3.57333 115.249 3.456C115.126 3.33333 115.065 3.17333 115.065 2.976C115.065 2.77867 115.126 2.62133 115.249 2.504C115.377 2.38133 115.545 2.32 115.753 2.32C115.961 2.32 116.126 2.38133 116.249 2.504C116.377 2.62133 116.441 2.77867 116.441 2.976C116.441 3.17333 116.377 3.33333 116.249 3.456C116.126 3.57333 115.961 3.632 115.753 3.632ZM115.209 4.008H116.297V8H115.209V4.008ZM117.369 4.008H118.377V4.488C118.495 4.32267 118.647 4.192 118.833 4.096C119.02 3.99467 119.207 3.944 119.393 3.944H119.873C120.3 3.944 120.641 4.07733 120.897 4.344C121.159 4.61067 121.289 4.96267 121.289 5.4V8H120.201V5.44C120.201 5.27467 120.156 5.14133 120.065 5.04C119.98 4.93867 119.868 4.888 119.729 4.888H119.249C119.063 4.888 118.895 4.95733 118.745 5.096C118.601 5.22933 118.505 5.40533 118.457 5.624V8H117.369V4.008ZM126.215 8C125.746 8 125.402 7.89333 125.183 7.68C124.964 7.46667 124.855 7.136 124.855 6.688V4.936H124.151V4.008H124.887V2.8H125.943V4.008H126.983V4.936H125.943V6.64C125.943 6.78933 125.97 6.89867 126.023 6.968C126.082 7.03733 126.172 7.072 126.295 7.072H126.983V8H126.215ZM127.752 2.4H128.84V4.408C128.958 4.26933 129.102 4.15733 129.272 4.072C129.448 3.98667 129.616 3.944 129.776 3.944H130.272C130.699 3.944 131.04 4.07733 131.296 4.344C131.558 4.61067 131.688 4.96267 131.688 5.4V8H130.6V5.44C130.6 5.27467 130.555 5.14133 130.464 5.04C130.379 4.93867 130.267 4.888 130.128 4.888H129.632C129.446 4.888 129.278 4.95733 129.128 5.096C128.984 5.22933 128.888 5.40533 128.84 5.624V8H127.752V2.4ZM134.117 8.064C133.781 8.064 133.482 8.00267 133.221 7.88C132.965 7.752 132.765 7.576 132.621 7.352C132.477 7.12267 132.405 6.86133 132.405 6.568V5.536C132.405 5.22133 132.477 4.944 132.621 4.704C132.765 4.464 132.965 4.27733 133.221 4.144C133.482 4.01067 133.781 3.944 134.117 3.944H134.757C135.269 3.944 135.679 4.088 135.989 4.376C136.298 4.664 136.453 5.048 136.453 5.528V6.376H133.493V6.568C133.493 6.744 133.549 6.88533 133.661 6.992C133.773 7.09867 133.925 7.152 134.117 7.152H134.741C134.927 7.152 135.077 7.112 135.189 7.032C135.306 6.94667 135.365 6.83733 135.365 6.704H136.437C136.437 6.97067 136.365 7.208 136.221 7.416C136.077 7.624 135.874 7.784 135.613 7.896C135.357 8.008 135.061 8.064 134.725 8.064H134.117ZM135.381 5.592V5.528C135.381 5.32 135.325 5.15467 135.213 5.032C135.101 4.904 134.951 4.84 134.765 4.84H134.117C133.925 4.84 133.77 4.90667 133.653 5.04C133.535 5.17333 133.477 5.34933 133.477 5.568V5.592H135.381ZM140.918 8.064C140.444 8.064 140.06 7.92 139.766 7.632C139.478 7.344 139.334 6.96533 139.334 6.496V5.584C139.334 5.25867 139.404 4.97333 139.542 4.728C139.681 4.47733 139.876 4.28533 140.126 4.152C140.377 4.01333 140.668 3.944 140.998 3.944H141.438C141.593 3.944 141.75 3.97867 141.91 4.048C142.07 4.112 142.204 4.2 142.31 4.312V2.4H143.398V8H142.39V7.472C142.284 7.648 142.14 7.792 141.958 7.904C141.777 8.01067 141.588 8.064 141.39 8.064H140.918ZM141.51 7.128C141.729 7.128 141.91 7.05067 142.054 6.896C142.204 6.736 142.289 6.52533 142.31 6.264V5.568C142.273 5.36 142.19 5.19467 142.062 5.072C141.94 4.944 141.793 4.88 141.622 4.88H141.134C140.921 4.88 140.748 4.952 140.614 5.096C140.486 5.24 140.422 5.42933 140.422 5.664V6.416C140.422 6.62933 140.481 6.80267 140.598 6.936C140.716 7.064 140.868 7.128 141.054 7.128H141.51ZM145.011 3.632C144.803 3.632 144.635 3.57333 144.507 3.456C144.384 3.33333 144.323 3.17333 144.323 2.976C144.323 2.77867 144.384 2.62133 144.507 2.504C144.635 2.38133 144.803 2.32 145.011 2.32C145.219 2.32 145.384 2.38133 145.507 2.504C145.635 2.62133 145.699 2.77867 145.699 2.976C145.699 3.17333 145.635 3.33333 145.507 3.456C145.384 3.57333 145.219 3.632 145.011 3.632ZM144.467 4.008H145.555V8H144.467V4.008ZM148.179 9.624C147.753 9.624 147.398 9.50133 147.115 9.256C146.833 9.016 146.675 8.69867 146.643 8.304H147.715C147.726 8.42133 147.774 8.51467 147.859 8.584C147.945 8.65867 148.051 8.696 148.179 8.696H148.899C149.065 8.696 149.198 8.62667 149.299 8.488C149.406 8.35467 149.459 8.17867 149.459 7.96V7.584C149.353 7.70133 149.222 7.79467 149.067 7.864C148.918 7.93333 148.774 7.968 148.635 7.968H148.083C147.598 7.968 147.206 7.824 146.907 7.536C146.614 7.248 146.467 6.86933 146.467 6.4V5.584C146.467 5.25867 146.537 4.97333 146.675 4.728C146.814 4.47733 147.009 4.28533 147.259 4.152C147.51 4.01333 147.798 3.944 148.123 3.944H148.587C148.769 3.944 148.945 3.98667 149.115 4.072C149.291 4.15733 149.433 4.26933 149.539 4.408V4.008H150.547V7.96C150.547 8.29067 150.478 8.58133 150.339 8.832C150.206 9.08267 150.014 9.27733 149.763 9.416C149.513 9.55467 149.225 9.624 148.899 9.624H148.179ZM148.707 7.048C148.91 7.048 149.081 6.96533 149.219 6.8C149.358 6.62933 149.438 6.408 149.459 6.136V5.584C149.438 5.37067 149.366 5.2 149.243 5.072C149.121 4.944 148.966 4.88 148.779 4.88H148.219C148.022 4.88 147.862 4.952 147.739 5.096C147.617 5.24 147.555 5.42933 147.555 5.664V6.32C147.555 6.53867 147.611 6.71467 147.723 6.848C147.835 6.98133 147.979 7.048 148.155 7.048H148.707ZM158.329 8.064C157.913 8.064 157.577 7.96 157.321 7.752C157.065 7.544 156.937 7.26933 156.937 6.928V6.632C156.937 6.296 157.07 6.02667 157.337 5.824C157.603 5.616 157.955 5.512 158.393 5.512H158.881C159.019 5.512 159.169 5.53067 159.329 5.568C159.489 5.60533 159.635 5.656 159.769 5.72V5.304C159.769 5.17067 159.723 5.064 159.633 4.984C159.547 4.89867 159.433 4.856 159.289 4.856H158.601C158.451 4.856 158.331 4.89067 158.241 4.96C158.15 5.02933 158.105 5.12267 158.105 5.24H157.049C157.049 4.85067 157.19 4.53867 157.473 4.304C157.761 4.064 158.137 3.944 158.601 3.944H159.289C159.758 3.944 160.137 4.06933 160.425 4.32C160.713 4.56533 160.857 4.89333 160.857 5.304V8H159.849V7.52C159.721 7.68533 159.563 7.81867 159.377 7.92C159.19 8.016 159.006 8.064 158.825 8.064H158.329ZM158.905 7.232C159.102 7.232 159.278 7.18133 159.433 7.08C159.587 6.97867 159.699 6.84267 159.769 6.672V6.536C159.683 6.472 159.563 6.42133 159.409 6.384C159.259 6.34667 159.099 6.328 158.929 6.328H158.425C158.297 6.328 158.193 6.36 158.113 6.424C158.033 6.488 157.993 6.57333 157.993 6.68V6.888C157.993 6.98933 158.035 7.072 158.121 7.136C158.211 7.2 158.329 7.232 158.473 7.232H158.905ZM163.113 8C162.638 8 162.289 7.90133 162.065 7.704C161.846 7.50133 161.737 7.18933 161.737 6.768V2.4H162.825V6.704C162.825 6.832 162.854 6.92533 162.913 6.984C162.971 7.04267 163.065 7.072 163.193 7.072H163.625V8H163.113ZM167.553 8C167.195 8 166.966 7.792 166.865 7.376L166.057 4.008H167.185L167.673 6.544H167.689L168.561 4.104H168.985C169.107 4.104 169.206 4.13067 169.281 4.184C169.355 4.23733 169.414 4.32 169.457 4.432L170.201 6.544H170.217L170.697 4.008H171.825L171.033 7.376C170.937 7.792 170.707 8 170.345 8H169.849L168.961 5.472L168.041 8H167.553ZM173.851 8.064C173.515 8.064 173.216 8 172.955 7.872C172.699 7.73867 172.499 7.552 172.355 7.312C172.216 7.072 172.147 6.79467 172.147 6.48V5.544C172.147 5.22933 172.219 4.952 172.363 4.712C172.507 4.46667 172.707 4.27733 172.963 4.144C173.224 4.01067 173.523 3.944 173.859 3.944H174.579C174.915 3.944 175.211 4.01067 175.467 4.144C175.728 4.27733 175.931 4.46667 176.075 4.712C176.219 4.952 176.291 5.22933 176.291 5.544V6.48C176.291 6.79467 176.219 7.072 176.075 7.312C175.931 7.552 175.728 7.73867 175.467 7.872C175.211 8 174.912 8.064 174.571 8.064H173.851ZM174.555 7.128C174.752 7.128 174.91 7.06133 175.027 6.928C175.144 6.78933 175.203 6.61067 175.203 6.392V5.616C175.203 5.39733 175.144 5.22133 175.027 5.088C174.91 4.94933 174.755 4.88 174.563 4.88H173.875C173.683 4.88 173.528 4.94933 173.411 5.088C173.294 5.22133 173.235 5.39733 173.235 5.616V6.392C173.235 6.61067 173.294 6.78933 173.411 6.928C173.528 7.06133 173.68 7.128 173.867 7.128H174.555ZM177.057 4.008H178.065V4.52C178.166 4.36533 178.31 4.24 178.497 4.144C178.689 4.04267 178.889 3.992 179.097 3.992H179.641V4.936H179.097C178.814 4.936 178.585 5.02133 178.409 5.192C178.233 5.36267 178.145 5.58133 178.145 5.848V8H177.057V4.008ZM181.495 8C181.021 8 180.671 7.90133 180.447 7.704C180.229 7.50133 180.119 7.18933 180.119 6.768V2.4H181.207V6.704C181.207 6.832 181.237 6.92533 181.295 6.984C181.354 7.04267 181.447 7.072 181.575 7.072H182.007V8H181.495ZM183.911 8.064C183.436 8.064 183.052 7.92 182.759 7.632C182.471 7.344 182.327 6.96533 182.327 6.496V5.584C182.327 5.25867 182.396 4.97333 182.535 4.728C182.673 4.47733 182.868 4.28533 183.119 4.152C183.369 4.01333 183.66 3.944 183.991 3.944H184.431C184.585 3.944 184.743 3.97867 184.903 4.048C185.063 4.112 185.196 4.2 185.303 4.312V2.4H186.391V8H185.383V7.472C185.276 7.648 185.132 7.792 184.951 7.904C184.769 8.01067 184.58 8.064 184.383 8.064H183.911ZM184.503 7.128C184.721 7.128 184.903 7.05067 185.047 6.896C185.196 6.736 185.281 6.52533 185.303 6.264V5.568C185.265 5.36 185.183 5.19467 185.055 5.072C184.932 4.944 184.785 4.88 184.615 4.88H184.127C183.913 4.88 183.74 4.952 183.607 5.096C183.479 5.24 183.415 5.42933 183.415 5.664V6.416C183.415 6.62933 183.473 6.80267 183.591 6.936C183.708 7.064 183.86 7.128 184.047 7.128H184.503Z" fill="#FFAE00"/>
<path d="M152.167 3.632C151.959 3.632 151.791 3.57333 151.663 3.456C151.54 3.33333 151.479 3.17333 151.479 2.976C151.479 2.77867 151.54 2.62133 151.663 2.504C151.791 2.38133 151.959 2.32 152.167 2.32C152.375 2.32 152.54 2.38133 152.663 2.504C152.791 2.62133 152.855 2.77867 152.855 2.976C152.855 3.17333 152.791 3.33333 152.663 3.456C152.54 3.57333 152.375 3.632 152.167 3.632ZM151.623 4.008H152.711V8H151.623V4.008ZM155.528 8C155.058 8 154.714 7.89333 154.496 7.68C154.277 7.46667 154.168 7.136 154.168 6.688V4.936H153.464V4.008H154.2V2.8H155.256V4.008H156.296V4.936H155.256V6.64C155.256 6.78933 155.282 6.89867 155.336 6.968C155.394 7.03733 155.485 7.072 155.608 7.072H156.296V8H155.528Z" fill="white"/>
</svg>
